# AST/ASF file generated using VICON BodyLanguage
# -----------------------------------------------
:version 1.10
:name VICON
:units
  mass 1.0
  length 0.45
  angle deg
:documentation
   .ast/.asf automatically generated from VICON data using
   VICON BodyBuilder and BodyLanguage model FoxedUp or BRILLIANT.MOD
:root
   order TX TY TZ RX RY RZ
   axis XYZ
   position 0 0 0  
   orientation 0 0 0 
:bonedata
  begin
     id 1 
     name lhipjoint
     direction 0.576517 -0.752066 0.319413 
     length 2.45433 
     axis 0 0 0  XYZ
  end
  begin
     id 2 
     name lfemur
     direction 0.34202 -0.939693 0  
     length 7.54459  
     axis 0 0 20  XYZ
    dof rx ry rz
    limits (-160.0 20.0)
           (-70.0 70.0)
           (-60.0 70.0)
  end
  begin
     id 3 
     name ltibia
     direction 0.34202 -0.939693 0   
     length 7.73986   
     axis 0 0 20   XYZ
    dof rx
    limits (-10.0 170.0)
  end
  begin
     id 4 
     name lfoot
     direction 0.090693 -0.249177 0.964202   
     length 2.28437   
     axis -90 7.62852e-016 20   XYZ
    dof rx rz
    limits (-45.0 90.0)
           (-70.0 20.0)
  end
  begin
     id 5 
     name ltoes
     direction 1.5356e-011 -4.21928e-011 1   
     length 1.14243   
     axis -90 7.62852e-016 20   XYZ
    dof rx
    limits (-90.0 20.0)
  end
  begin
     id 6 
     name rhipjoint
     direction -0.573937 -0.753736 0.320122   
     length 2.44889  
     axis 0 0 0  XYZ 
  end
  begin
     id 7 
     name rfemur
     direction -0.34202 -0.939693 0   
     length 7.50166   
     axis 0 0 -20   XYZ
    dof rx ry rz
    limits (-160.0 20.0)
           (-70.0 70.0)
           (-70.0 60.0)
  end
  begin
     id 8 
     name rtibia
     direction -0.34202 -0.939693 0   
     length 7.54266   
     axis 0 0 -20   XYZ
    dof rx
    limits (-10.0 170.0)
 end
 begin
     id 9 
     name rfoot
     direction -0.114017 -0.31326 0.942798   
     length 2.34212  
     axis -90 -7.62852e-016 -20   XYZ
    dof rx rz
    limits (-45.0 90.0)
           (-20.0 70.0)
  end
  begin
     id 10 
     name rtoes
     direction -1.53557e-011 -4.21867e-011 1   
     length 1.16246   
     axis -90 -7.62852e-016 -20   XYZ
    dof rx
    limits (-90.0 20.0)
  end
  begin
     id 11 
     name lowerback
     direction -0.0228371 0.999155 -0.034167   
     length 2.0537   
     axis 0 0 0   XYZ
    dof rx ry rz
    limits (-20.0 45.0)
           (-30.0 30.0)
           (-30.0 30.0)
  end
  begin
     id 12 
     name upperback
     direction 0.0198981 0.999794 0.00389455   
     length 2.05302   
     axis 0 0 0   XYZ
    dof rx ry rz
    limits (-20.0 45.0)
           (-30.0 30.0)
           (-30.0 30.0)
  end
  begin
     id 13 
     name thorax
     direction 0.0304566 0.99935 0.0192987   
     length 2.05315   
     axis 0 0 0   XYZ
    dof rx ry rz
    limits (-20.0 45.0)
           (-30.0 30.0)
           (-30.0 30.0)
  end
  begin
     id 14 
     name lowerneck
     direction -0.0196762 0.99417 0.106017   
     length 1.82056   
     axis 0 0 0   XYZ
    dof rx ry rz
    limits (-20.0 45.0)
           (-30.0 30.0)
           (-30.0 30.0)
  end
  begin
     id 15 
     name upperneck
     direction 0.00517787 0.9802 -0.197944   
     length 1.83835   
     axis 0 0 0   XYZ
    dof rx ry rz
    limits (-20.0 45.0)
           (-30.0 30.0)
           (-30.0 30.0)
  end
  begin
     id 16
     name head
     direction 0.00211419 0.996945 -0.078081  
     length 1.85629  
     axis 0 0 0   XYZ
    dof rx ry rz
    limits (-20.0 45.0)
           (-30.0 30.0)
           (-30.0 30.0)
  end
  begin
     id 17 
     name lclavicle
     direction 0.930001 0.365811 -0.0357824  
     length 3.81961  
     axis 0 0 0   XYZ
    dof ry rz
    limits (-20.0 10.0)
           (0.0 20.0)
  end
  begin
     id 18 
     name lhumerus
     direction 1 -4.48968e-011 -3.06644e-027   
     length 5.14507   
     axis 180 -30 -90   XYZ
    dof rx ry rz
    limits (-60.0 90.0)
           (-90.0 90.0)
           (-90.0 90.0)
  end
  begin
     id 19
     name lradius
     direction 1 -4.48965e-011 9.06925e-028   
     length 3.50646   
     axis 180 -30 -90   XYZ
    dof rx
    limits (-10.0 170.0)
  end
  begin
     id 20
     name lwrist
     direction 1 -4.48957e-011 1.03922e-027   
     length 1.75323   
     axis -2.56395e-016 90 90   XYZ
    dof ry
    limits (-180.0 0.0)
 end
  begin
     id 21 
     name lhand
     direction 1 -4.48967e-011 2.08017e-027   
     length 0.629969   
     axis -1.32723e-015 90 90   XYZ
    dof rx rz
    limits (-90.0 90.0)
           (-45.0 45.0)
  end
  begin
     id 22 
     name lfingers
     direction 1 -4.49089e-011 4.20095e-027   
     length 0.507897   
     axis -2.6545e-015 90 90   XYZ
    dof rx
    limits (0.0 90.0)
  end
  begin
     id 23
     name lthumb
     direction 0.707107 -6.35001e-011 0.707107   
     length 0.729241   
     axis -90 45 5.05613e-014   XYZ
    dof rx rz
    limits (-45.0 45.0)
           (-45.0 45.0)
  end
  begin
     id 24 
     name rclavicle
     direction -0.881882 0.464123 -0.0829113   
     length 3.47515  
     axis 0 0 0   XYZ 
    dof ry rz
    limits (-10.0 20.0)
           (-20.0 0.0)
  end
  begin
     id 25 
     name rhumerus
     direction -1 -4.48961e-011 -1.55672e-027  
     length 5.232   
     axis 180 30 90   XYZ
    dof rx ry rz
    limits (-90.0 60.0)
           (-90.0 90.0)
           (-90.0 90.0)
  end
  begin
     id 26 
     name rradius
     direction -1 -4.48963e-011 6.18178e-029   
     length 3.65641   
     axis 180 30 90   XYZ
    dof rx
    limits (-10.0 170.0)
  end
  begin
     id 27 
     name rwrist
     direction -1 -4.48982e-011 1.04136e-027   
     length 1.8282   
     axis -2.56395e-016 -90 -90   XYZ
    dof ry
    limits (-180.0 0.0)
  end
  begin
     id 28
     name rhand
     direction -1 -4.48929e-011 2.07378e-027   
     length 0.656807   
     axis -1.32723e-015 -90 -90   XYZ
    dof rx rz
    limits (-90.0 90.0)
           (-45.0 45.0)
  end
  begin
     id 29
     name rfingers
     direction -1 -4.489e-011 4.13816e-027   
     length 0.529535   
     axis -2.6545e-015 -90 -90   XYZ
    dof rx
    limits (0.0 90.0)
  end
  begin
     id 30
     name rthumb
     direction -0.707107 -6.34843e-011 0.707107   
     length 0.760309   
     axis -90 -45 -5.05613e-014   XYZ
    dof rx rz
    limits (-45.0 45.0)
           (-45.0 45.0)
  end
:hierarchy
  begin
    root lhipjoint rhipjoint lowerback
    lhipjoint lfemur
    lfemur ltibia
    ltibia lfoot
    lfoot ltoes
    rhipjoint rfemur
    rfemur rtibia
    rtibia rfoot
    rfoot rtoes
    lowerback upperback
    upperback thorax
    thorax lowerneck lclavicle rclavicle
    lowerneck upperneck
    upperneck head
    lclavicle lhumerus
    lhumerus lradius
    lradius lwrist
    lwrist lhand lthumb
    lhand lfingers
    rclavicle rhumerus
    rhumerus rradius
    rradius rwrist
    rwrist rhand rthumb
    rhand rfingers
  end

#!OML:ASF H:\ManfredETheater\Project 1\Capture day 1\Session 1\subject.ASF
:FULLY-SPECIFIED
:DEGREES
1
root 1.87843 15.7654 -46.2773 29.5571 -7.18849 -1.57463
lowerback 17.9933 4.25664 1.83216
upperback 1.0161 5.78772 -1.73349
thorax -8.59247 2.65373 -4.34215
lowerneck -17.6459 -3.76858 -4.1448
upperneck -2.28991 -4.18987 0.409061
head 2.40961 -2.06233 0.547141
rclavicle -3.18055e-014 -1.98785e-015
rhumerus -27.0841 19.6335 -91.6838
rradius 102.529
rwrist -0.194392
rhand -20.6203 2.14409
rfingers 7.12502
rthumb 5.7409 -27.7581
lclavicle -3.18055e-014 -1.98785e-015
lhumerus -71.4964 -5.31953 87.6228
lradius 97.4795
lwrist 12.1566
lhand -23.1877 -16.4163
lfingers 7.12502
lthumb 3.26183 13.5385
rfemur 11.2863 -1.20652 21.331
rtibia 12.0352
rfoot -0.198125 -13.7284
rtoes -33.7799
lfemur -78.5198 4.79234 -24.124
ltibia 73.6811
lfoot -22.5605 -3.57782
ltoes -6.40721
2
root 1.8695 15.7826 -45.9365 29.8614 -6.57177 -1.57602
lowerback 18.1503 4.03151 1.94586
upperback 0.896895 5.51982 -1.72032
thorax -8.82167 2.5121 -4.35055
lowerneck -17.5374 -3.78018 -4.21992
upperneck -2.53199 -4.20998 0.762397
head 2.31902 -2.05609 0.677842
rclavicle -4.77083e-015 1.90833e-014
rhumerus -27.8194 19.2712 -91.9506
rradius 102.291
rwrist -0.354065
rhand -20.6224 1.7519
rfingers 7.12502
rthumb 5.7389 -28.1504
lclavicle -4.77083e-015 1.90833e-014
lhumerus -71.2851 -4.70649 87.562
lradius 97.2617
lwrist 11.696
lhand -23.4698 -14.6343
lfingers 7.12502
lthumb 2.9894 15.3245
rfemur 8.70841 -1.06198 21.4475
rtibia 16.498
rfoot 5.06987 -11.3295
rtoes -40.8709
lfemur -77.6621 4.4299 -24.0982
ltibia 74.1146
lfoot -22.7192 -3.541
ltoes -1.48908
3
root 1.8619 15.7885 -45.5994 30.132 -5.9682 -1.39211
lowerback 18.2773 3.82461 1.9121
upperback 0.854993 5.24253 -1.72533
thorax -8.96279 2.37545 -4.28434
lowerneck -17.6462 -3.82532 -4.20973
upperneck -2.79362 -4.2743 0.964773
head 2.25526 -2.07791 0.737644
rclavicle -4.29375e-014 1.11319e-014
rhumerus -28.5252 18.7588 -92.1117
rradius 101.732
rwrist -0.479024
rhand -20.7006 1.63956
rfingers 7.12502
rthumb 5.66341 -28.2648
lclavicle -4.29375e-014 1.11319e-014
lhumerus -70.5879 -4.11424 87.4896
lradius 96.5936
lwrist 11.3416
lhand -23.2752 -14.3384
lfingers 7.12502
lthumb 3.17736 15.6176
rfemur 5.96531 -1.35183 21.3778
rtibia 21.8003
rfoot 7.17871 -10.3755
rtoes -38.5192
lfemur -76.7105 3.92965 -24.1481
ltibia 74.4413
lfoot -23.6823 -3.18549
ltoes -0.445046
4
root 1.85181 15.7967 -45.2652 30.3454 -5.45996 -1.2469
lowerback 18.4856 3.64729 1.82515
upperback 0.820398 4.99557 -1.70461
thorax -9.1454 2.25465 -4.1727
lowerneck -17.6832 -3.85626 -4.26537
upperneck -3.02863 -4.31092 1.21128
head 2.19071 -2.08457 0.826328
rclavicle -1.59028e-014 -4.77083e-015
rhumerus -29.2345 18.2998 -92.2278
rradius 100.945
rwrist -0.759572
rhand -20.7784 1.25395
rfingers 7.12502
rthumb 5.58828 -28.6524
lclavicle -1.59028e-014 -4.77083e-015
lhumerus -69.6996 -3.61651 87.5389
lradius 95.9853
lwrist 11.0711
lhand -23.0123 -14.1924
lfingers 7.12502
lthumb 3.4312 15.7597
rfemur 3.55456 -1.56383 21.3439
rtibia 26.4344
rfoot 9.97446 -9.76837
rtoes -39.0094
lfemur -75.6352 3.50431 -24.0844
ltibia 74.6902
lfoot -24.9877 -3.08031
ltoes -0.937466
5
root 1.84024 15.8292 -44.9201 30.5594 -5.13519 -0.830757
lowerback 18.5533 3.49413 1.37907
upperback 0.827496 4.69928 -1.72572
thorax -9.23233 2.12918 -3.87605
lowerneck -17.7836 -3.84507 -4.11986
upperneck -3.27274 -4.32174 1.23998
head 2.12113 -2.08782 0.809602
rclavicle 1.59028e-015 5.96354e-015
rhumerus -30.1287 17.7011 -92.4716
rradius 99.3304
rwrist -1.52179
rhand -21.058 1.09343
rfingers 7.12502
rthumb 5.31831 -28.8198
lclavicle 1.59028e-015 5.96354e-015
lhumerus -67.9309 -3.31931 88.0293
lradius 95.0071
lwrist 10.894
lhand -23.4921 -14.6746
lfingers 7.12502
lthumb 2.96785 15.2845
rfemur 0.766904 -2.2187 21.0258
rtibia 31.2793
rfoot 10.6569 -10.3758
rtoes -32.147
lfemur -74.3307 3.02355 -24.3373
ltibia 74.7458
lfoot -26.2979 -2.7765
ltoes -2.21868
6
root 1.82968 15.8398 -44.5834 30.7571 -4.75453 -0.505518
lowerback 18.6874 3.32474 1.07415
upperback 0.810788 4.41151 -1.74034
thorax -9.36719 2.00076 -3.65886
lowerneck -17.8065 -3.84272 -4.06749
upperneck -3.52594 -4.33218 1.37571
head 2.04081 -2.08673 0.845321
rclavicle 4.37326e-015 1.23246e-014
rhumerus -30.9365 17.1269 -92.6786
rradius 98.0467
rwrist -2.04517
rhand -21.2289 0.848147
rfingers 7.12502
rthumb 5.15329 -29.0692
lclavicle 4.37326e-015 1.23246e-014
lhumerus -66.5794 -2.97396 88.364
lradius 94.241
lwrist 10.7375
lhand -23.7147 -14.7085
lfingers 7.12502
lthumb 2.7529 15.2535
rfemur -1.84509 -2.62447 20.7985
rtibia 36.1382
rfoot 11.293 -10.0103
rtoes -29.9382
lfemur -73.096 2.57403 -24.5048
ltibia 74.7973
lfoot -27.3695 -2.49558
ltoes -2.47198
7
root 1.8182 15.8481 -44.249 30.9404 -4.41783 -0.101816
lowerback 18.8107 3.15399 0.681296
upperback 0.797311 4.1013 -1.76513
thorax -9.4963 1.86632 -3.39439
lowerneck -17.8079 -3.82736 -3.99795
upperneck -3.7757 -4.32857 1.48108
head 1.95627 -2.08027 0.869381
rclavicle -3.89618e-014 1.23246e-014
rhumerus -31.7749 16.4843 -92.9025
rradius 96.5209
rwrist -2.6308
rhand -21.4406 0.631359
rfingers 7.12502
rthumb 4.94894 -29.2908
lclavicle -3.89618e-014 1.23246e-014
lhumerus -65.0299 -2.73272 88.8148
lradius 93.4369
lwrist 10.6924
lhand -23.9651 -14.8965
lfingers 7.12502
lthumb 2.51103 15.0685
rfemur -4.51618 -3.09373 20.5045
rtibia 41.0538
rfoot 10.9654 -9.97497
rtoes -27.7992
lfemur -71.8012 2.10229 -24.7437
ltibia 74.7631
lfoot -28.4538 -2.17801
ltoes -3.12119
8
root 1.80622 15.8547 -43.9153 31.0891 -4.13665 0.365575
lowerback 18.9345 2.98237 0.217148
upperback 0.788409 3.77221 -1.80246
thorax -9.62138 1.7268 -3.09609
lowerneck -17.7736 -3.797 -3.92038
upperneck -4.01825 -4.30746 1.56946
head 1.86693 -2.06623 0.88815
rclavicle -2.62396e-014 7.55382e-015
rhumerus -32.6478 15.7583 -93.1468
rradius 94.7714
rwrist -3.26618
rhand -21.6899 0.442369
rfingers 7.12502
rthumb 4.70817 -29.4853
lclavicle -2.62396e-014 7.55382e-015
lhumerus -63.3195 -2.61338 89.3741
lradius 92.637
lwrist 10.771
lhand -24.2178 -15.1556
lfingers 7.12502
lthumb 2.26697 14.8121
rfemur -7.15978 -3.60469 20.1396
rtibia 45.7822
rfoot 9.96218 -10.0861
rtoes -26.2946
lfemur -70.4296 1.62763 -25.0539
ltibia 74.6807
lfoot -29.5249 -1.83523
ltoes -3.88052
9
root 1.79383 15.8602 -43.5818 31.1985 -3.90265 0.893608
lowerback 19.0601 2.8057 -0.305277
upperback 0.782473 3.42112 -1.85368
thorax -9.74279 1.58021 -2.77193
lowerneck -17.7079 -3.75196 -3.83121
upperneck -4.2479 -4.26978 1.63938
head 1.77546 -2.04516 0.900343
rclavicle 5.28767e-014 -3.06128e-014
rhumerus -33.5599 14.9287 -93.4046
rradius 92.8195
rwrist -3.93341
rhand -21.9945 0.269779
rfingers 7.12502
rthumb 4.41404 -29.6642
lclavicle 5.28767e-014 -3.06128e-014
lhumerus -61.4726 -2.62212 90.0179
lradius 91.8563
lwrist 10.9787
lhand -24.3892 -15.5049
lfingers 7.12502
lthumb 2.10147 14.4645
rfemur -9.88827 -4.16293 19.7042
rtibia 50.5119
rfoot 8.29401 -10.3639
rtoes -25.3404
lfemur -68.9718 1.15121 -25.4359
ltibia 74.523
lfoot -30.5344 -1.4794
ltoes -4.65534
10
root 1.78131 15.8644 -43.2483 31.2604 -3.70839 1.47049
lowerback 19.1966 2.62121 -0.86615
upperback 0.777999 3.0482 -1.91851
thorax -9.86482 1.42572 -2.4333
lowerneck -17.6079 -3.69281 -3.73659
upperneck -4.46026 -4.21537 1.70358
head 1.68349 -2.0165 0.911142
rclavicle 5.00937e-014 -9.93923e-015
rhumerus -34.5119 13.9844 -93.6598
rradius 90.6944
rwrist -4.63642
rhand -22.3239 0.131541
rfingers 7.12502
rthumb 4.09601 -29.8088
lclavicle 5.00937e-014 -9.93923e-015
lhumerus -59.5205 -2.77159 90.7304
lradius 91.1258
lwrist 11.2658
lhand -24.4833 -15.9012
lfingers 7.12502
lthumb 2.01064 14.0691
rfemur -12.7044 -4.75372 19.2066
rtibia 55.1896
rfoot 6.17152 -10.8466
rtoes -25.2441
lfemur -67.4246 0.680477 -25.8773
ltibia 74.2948
lfoot -31.4749 -1.14604
ltoes -5.40328
